<svg width="40" height="40" viewBox="0 0 40 40" fill="none" xmlns="http://www.w3.org/2000/svg">
<rect width="40" height="40" rx="7.01754" fill="#6443F9"/>
<path d="M19.9995 4.21053C20.6792 4.21053 21.3314 4.48147 21.812 4.96346C22.2927 5.44548 22.563 6.09916 22.563 6.78084C22.5617 7.33257 22.3831 7.86955 22.0532 8.31111C21.7234 8.75265 21.2596 9.07573 20.732 9.23201V13.023H28.0552C29.2204 13.0231 30.3378 13.4878 31.1616 14.314C31.9855 15.1403 32.4487 16.2608 32.4488 17.4293V18.2457H33.0659C33.6486 18.2457 34.2077 18.478 34.6197 18.8912C35.0316 19.3044 35.2632 19.8645 35.2632 20.4488V25.5894C35.2632 26.1737 35.0315 26.7339 34.6197 27.147C34.2077 27.5602 33.6486 27.7926 33.0659 27.7926H32.4488V31.3834C32.4487 32.5519 31.9855 33.6723 31.1616 34.4986C30.3378 35.3249 29.2204 35.7896 28.0552 35.7896H11.9449C10.7797 35.7896 9.66231 35.3249 8.83841 34.4986C8.01457 33.6723 7.55136 32.5519 7.5513 31.3834V27.7926H6.93411C6.35148 27.7926 5.79238 27.5602 5.3804 27.147C4.9685 26.7339 4.73684 26.1737 4.73684 25.5894V20.4488C4.73684 19.8645 4.96846 19.3044 5.3804 18.8912C5.79238 18.478 6.35148 18.2457 6.93411 18.2457H7.5513V17.4293C7.55139 16.2608 8.01457 15.1403 8.83841 14.314C9.66231 13.4877 10.7797 13.0231 11.9449 13.023H19.2681V9.23201C18.7405 9.07574 18.2767 8.75264 17.9468 8.31111C17.617 7.86955 17.4383 7.33257 17.437 6.78084C17.4371 6.09916 17.7074 5.44548 18.188 4.96346C18.6685 4.48159 19.32 4.21065 19.9995 4.21053ZM15.9409 28.2027C15.769 28.1211 15.5722 28.1092 15.3921 28.1705C15.212 28.2318 15.0621 28.3611 14.9751 28.5308C14.8882 28.7006 14.871 28.898 14.9263 29.0806C14.9816 29.2632 15.1057 29.4167 15.272 29.5094C16.7181 30.2547 18.3528 30.6489 19.9995 30.649C21.6464 30.649 23.2818 30.2548 24.7281 29.5094C24.8899 29.4144 25.0095 29.2612 25.062 29.0806C25.1145 28.9001 25.0959 28.706 25.0103 28.5387C24.9246 28.3713 24.778 28.2427 24.6011 28.1803C24.4243 28.1179 24.2304 28.1262 24.0591 28.2027C21.5438 29.4997 18.4563 29.4996 15.9409 28.2027ZM15.2407 18.898C14.5611 18.898 13.9089 19.1691 13.4282 19.651C12.9477 20.1329 12.6774 20.7868 12.6773 21.4683C12.6773 22.15 12.9476 22.8047 13.4282 23.2867C13.9089 23.7685 14.5612 24.0396 15.2407 24.0396C15.9202 24.0395 16.5718 23.7684 17.0523 23.2867C17.5329 22.8047 17.8032 22.15 17.8032 21.4683C17.8031 20.7868 17.5328 20.1329 17.0523 19.651C16.5718 19.1692 15.9202 18.8982 15.2407 18.898ZM24.7593 18.898C24.4229 18.8981 24.0897 18.9652 23.7788 19.0943C23.4681 19.2234 23.1857 19.4125 22.9478 19.651C22.7099 19.8896 22.5209 20.1732 22.3921 20.4849C22.2634 20.7966 22.1969 21.1309 22.1968 21.4683C22.1968 21.8059 22.2633 22.1409 22.3921 22.4527C22.5209 22.7644 22.7099 23.0481 22.9478 23.2867C23.1857 23.5252 23.4681 23.7142 23.7788 23.8433C24.0897 23.9725 24.4229 24.0396 24.7593 24.0396C25.4389 24.0396 26.0912 23.7686 26.5718 23.2867C27.0524 22.8047 27.3228 22.15 27.3228 21.4683C27.3227 20.7868 27.0523 20.1329 26.5718 19.651C26.0912 19.1691 25.4389 18.898 24.7593 18.898Z" fill="white"/>
</svg>
