<svg width="48" height="48" viewBox="0 0 48 48" fill="none" xmlns="http://www.w3.org/2000/svg">
<path d="M0 8C0 3.58172 3.58172 0 8 0H40C44.4183 0 48 3.58172 48 8V40C48 44.4183 44.4183 48 40 48H8C3.58172 48 0 44.4183 0 40V8Z" fill="#F5F5F5"/>
<!-- Source card: external platform (orange) -->
<rect x="8" y="13" width="12" height="22" rx="2.5" fill="#FC8327"/>
<rect x="10.5" y="17" width="7" height="1.5" rx="0.75" fill="white"/>
<rect x="10.5" y="20.5" width="5" height="1.5" rx="0.75" fill="white"/>
<rect x="10.5" y="24" width="6" height="1.5" rx="0.75" fill="white"/>
<rect x="10.5" y="27.5" width="4" height="1.5" rx="0.75" fill="white"/>
<rect x="10.5" y="31" width="6" height="1.5" rx="0.75" fill="white"/>
<!-- Migration arrow -->
<path d="M21 24H24.5" stroke="#6B2EE5" stroke-width="2.5" stroke-linecap="round"/>
<path d="M24.5 21.5L27.5 24L24.5 26.5" stroke="#6B2EE5" stroke-width="2.5" stroke-linecap="round" stroke-linejoin="round"/>
<!-- Destination card: Eventin (purple) -->
<rect x="28" y="13" width="12" height="22" rx="2.5" fill="#6B2EE5"/>
<rect x="30.5" y="17" width="7" height="1.5" rx="0.75" fill="white"/>
<rect x="30.5" y="20.5" width="5" height="1.5" rx="0.75" fill="white"/>
<rect x="30.5" y="24" width="6" height="1.5" rx="0.75" fill="white"/>
<rect x="30.5" y="27.5" width="4" height="1.5" rx="0.75" fill="white"/>
<rect x="30.5" y="31" width="6" height="1.5" rx="0.75" fill="white"/>
</svg>
