<svg xmlns="http://www.w3.org/2000/svg" viewBox="0 0 32 32" width="32" height="32" fill="none">
  <path fill="#003087" d="M11.66 28.94H7.54a.57.57 0 0 1-.57-.66L9.92 9.16a.86.86 0 0 1 .85-.73h8.05c2.66 0 4.5.55 5.46 1.65.45.51.74 1.05.88 1.65.16.63.16 1.38 0 2.3v.66l.41.23c.34.18.62.4.84.65.36.4.6.91.7 1.51.1.62.07 1.37-.1 2.21-.2.97-.51 1.82-.95 2.52a5.4 5.4 0 0 1-1.5 1.65 6.1 6.1 0 0 1-2.02.92c-.74.18-1.6.27-2.55.27h-.62c-.44 0-.87.16-1.2.45-.34.29-.56.69-.63 1.13l-.05.26-.51 3.27-.03.13c0 .04-.02.06-.04.08a.12.12 0 0 1-.06.02h-3.21z"/>
  <path fill="#0070E0" d="M26.05 13.7c-.02.16-.05.32-.08.49-1.1 5.66-4.87 7.61-9.7 7.61h-2.45a1.2 1.2 0 0 0-1.18 1l-1.26 7.97-.35 2.27a.63.63 0 0 0 .62.73h4.36a1.05 1.05 0 0 0 1.04-.88l.04-.22.82-5.21.05-.29a1.05 1.05 0 0 1 1.04-.88h.65c4.23 0 7.54-1.71 8.5-6.67.4-2.07.2-3.8-.87-5.02a4.15 4.15 0 0 0-1.23-.92z"/>
  <path fill="#001C64" d="M24.9 13.24c-.34-.1-.7-.18-1.06-.25a13.3 13.3 0 0 0-2.13-.16h-6.46a1.04 1.04 0 0 0-1.04.88l-1.37 8.7-.04.25a1.2 1.2 0 0 1 1.18-1h2.45c4.83 0 8.6-1.95 9.7-7.61.04-.17.06-.33.08-.49a5.9 5.9 0 0 0-1.31-.32z"/>
  <path fill="#003087" d="M14.21 13.71a1.05 1.05 0 0 1 1.04-.88h6.46c.77 0 1.49.05 2.13.16a8.6 8.6 0 0 1 1.36.32c.34.11.66.25.95.4.34-2.18 0-3.66-1.18-5C23.67 7.24 21.32 6.6 18.32 6.6h-8.7a1.2 1.2 0 0 0-1.18 1L4.81 22.74a.74.74 0 0 0 .73.85h5.37l1.35-8.55.47-2.97z"/>
</svg>
